<svg width="56" height="101" viewBox="0 0 56 101">
  <g id="scroll" transform="translate(-172 -664)">
    <g id="Path_1" data-name="Path 1" transform="translate(172 664)" fill="none">
      <path d="M28,0A28,28,0,0,1,56,28V73A28,28,0,1,1,0,73V28A28,28,0,0,1,28,0Z" stroke="none"/>
      <path d="M 28 7 C 16.42055892944336 7 7 16.42056274414063 7 28 L 7 73 C 7 80.59321594238281 11.02667999267578 87.56607818603516 17.51128005981445 91.19895935058594 C 20.82553863525391 93.05760192871094 24.35444068908691 94 28 94 C 39.57943725585938 94 49 84.57943725585938 49 73 L 49 28 C 49 16.42056274414063 39.57943725585938 7 28 7 M 28 0 C 43.46398162841797 0 56 12.53601837158203 56 28 L 56 73 C 56 88.46398162841797 43.46398162841797 101 28 101 C 23.03606033325195 101 18.37382125854492 99.70828247070313 14.08734130859375 97.30442047119141 C 5.779621124267578 92.65017700195313 0 83.50003814697266 0 73 L 0 28 C 0 12.53601837158203 12.53601837158203 0 28 0 Z" stroke="none" fill="#fff"/>
    </g>
    <g id="Ellipse_1" data-name="Ellipse 1" transform="translate(186 679)" fill="#fff" stroke="#707070" stroke-width="1">
      <ellipse cx="14" cy="14.5" rx="14" ry="14.5" stroke="none"/>
      <ellipse cx="14" cy="14.5" rx="13.5" ry="14" fill="none"/>
    </g>
  </g>
</svg>
